<svg role="img" xmlns="http://www.w3.org/2000/svg">

    <symbol id="home" viewBox="0 0 20 20" fill="currentColor">
        <path d="M10.707 2.293a1 1 0 00-1.414 0l-7 7a1 1 0 001.414 1.414L4 10.414V17a1 1 0 001 1h2a1 1 0 001-1v-2a1 1 0 011-1h2a1 1 0 011 1v2a1 1 0 001 1h2a1 1 0 001-1v-6.586l.293.293a1 1 0 001.414-1.414l-7-7z" />
    </symbol>

    <!-- SHARED -->
    <!-- CHEVRON DOWN/DROPDOWN MENU ARROW -->
    <symbol id="chevronDown" viewBox="0 0 20 20" fill="currentColor">
        <path fill-rule="evenodd" d="M5.293 7.293a1 1 0 011.414 0L10 10.586l3.293-3.293a1 1 0 111.414 1.414l-4 4a1 1 0 01-1.414 0l-4-4a1 1 0 010-1.414z" clip-rule="evenodd" />
    </symbol>

    <!-- PLUS -->
    <symbol id="plus" class="h-6 w-6" fill="none" viewBox="0 0 24 24" stroke="currentColor">
        <path stroke-linecap="round" stroke-linejoin="round" stroke-width="1.5" d="M12 6v6m0 0v6m0-6h6m-6 0H6" />
    </symbol>

    <!-- ROOMS -->
    <symbol id="rooms" fill="none" viewBox="0 0 24 24" stroke="currentColor">
        <path stroke-linecap="round" stroke-linejoin="round" stroke-width="1.5" d="M4 5a1 1 0 011-1h14a1 1 0 011 1v2a1 1 0 01-1 1H5a1 1 0 01-1-1V5zM4 13a1 1 0 011-1h6a1 1 0 011 1v6a1 1 0 01-1 1H5a1 1 0 01-1-1v-6zM16 13a1 1 0 011-1h2a1 1 0 011 1v6a1 1 0 01-1 1h-2a1 1 0 01-1-1v-6z" />
    </symbol>

    <!-- THREE DOTS VERTICAL -->
    <symbol id="threeDotsVertical" fill="none" viewBox="0 0 24 24" stroke="currentColor">
        <path stroke-linecap="round" stroke-linejoin="round" stroke-width="1.5" d="M12 5v.01M12 12v.01M12 19v.01M12 6a1 1 0 110-2 1 1 0 010 2zm0 7a1 1 0 110-2 1 1 0 010 2zm0 7a1 1 0 110-2 1 1 0 010 2z" />
    </symbol>





    <!-- TOPHEADER -->
    <!-- HAMBURGUER -->
    <symbol id="hamburger" fill="none" viewBox="0 0 24 24" stroke="currentColor">
        <path stroke-linecap="round" stroke-linejoin="round" stroke-width="2" d="M4 8h16M4 12h16M4 16h16" />
    </symbol>

    <!-- SEARCH -->
    <symbol id="search" fill="none" viewBox="0 0 24 24" stroke="currentColor">
        <path stroke-linecap="round" stroke-linejoin="round" stroke-width="2" d="M21 21l-6-6m2-5a7 7 0 11-14 0 7 7 0 0114 0z" />
    </symbol>

    <!-- ADJUSTMENTS HORIZONTAL -->
    <symbol id="adjustments" fill="none" viewBox="0 0 24 24" stroke="currentColor">
        <path stroke-linecap="round" stroke-linejoin="round" stroke-width="1.2" d="M12 6V4m0 2a2 2 0 100 4m0-4a2 2 0 110 4m-6 8a2 2 0 100-4m0 4a2 2 0 110-4m0 4v2m0-6V4m6 6v10m6-2a2 2 0 100-4m0 4a2 2 0 110-4m0 4v2m0-6V4" />
    </symbol>

    <!-- CIRCLE QUESTION -->
    <symbol id="circleQuestion" fill="none" viewBox="0 0 24 24" stroke="currentColor">
        <path stroke-linecap="round" stroke-linejoin="round" stroke-width="2" d="M8.228 9c.549-1.165 2.03-2 3.772-2 2.21 0 4 1.343 4 3 0 1.4-1.278 2.575-3.006 2.907-.542.104-.994.54-.994 1.093m0 3h.01M21 12a9 9 0 11-18 0 9 9 0 0118 0z" />
    </symbol>

    <!-- SETTINGS -->
    <symbol id="settings" fill="none" viewBox="0 0 24 24" stroke="currentColor">
        <path stroke-linecap="round" stroke-linejoin="round" stroke-width="2" d="M10.325 4.317c.426-1.756 2.924-1.756 3.35 0a1.724 1.724 0 002.573 1.066c1.543-.94 3.31.826 2.37 2.37a1.724 1.724 0 001.065 2.572c1.756.426 1.756 2.924 0 3.35a1.724 1.724 0 00-1.066 2.573c.94 1.543-.826 3.31-2.37 2.37a1.724 1.724 0 00-2.572 1.065c-.426 1.756-2.924 1.756-3.35 0a1.724 1.724 0 00-2.573-1.066c-1.543.94-3.31-.826-2.37-2.37a1.724 1.724 0 00-1.065-2.572c-1.756-.426-1.756-2.924 0-3.35a1.724 1.724 0 001.066-2.573c-.94-1.543.826-3.31 2.37-2.37.996.608 2.296.07 2.572-1.065z" />
        <path stroke-linecap="round" stroke-linejoin="round" stroke-width="2" d="M15 12a3 3 0 11-6 0 3 3 0 016 0z" />
    </symbol>

    <!-- 9 DOTS -->
    <symbol id="nineDots" viewBox="0 0 24 24" stroke-width="2.5" stroke="currentColor" fill="none" stroke-linecap="round" stroke-linejoin="round">
        <path stroke="none" d="M0 0h24v24H0z" fill="none" />
        <circle cx="5" cy="5" r="1" />
        <circle cx="12" cy="5" r="1" />
        <circle cx="19" cy="5" r="1" />
        <circle cx="5" cy="12" r="1" />
        <circle cx="12" cy="12" r="1" />
        <circle cx="19" cy="12" r="1" />
        <circle cx="5" cy="19" r="1" />
        <circle cx="12" cy="19" r="1" />
        <circle cx="19" cy="19" r="1" />
    </symbol>



    <!-- LEFTSIDEBAR -->
    <!-- PENCIL -->
    <symbol id="pencil" fill="none" viewBox="0 0 24 24" stroke="currentColor">
        <path stroke-linecap="round" stroke-linejoin="round" stroke-width="2" d="M15.232 5.232l3.536 3.536m-2.036-5.036a2.5 2.5 0 113.536 3.536L6.5 21.036H3v-3.572L16.732 3.732z" />
    </symbol>

    <!-- STAR -->
    <symbol id="" class="h-5 w-5" fill="none" viewBox="0 0 24 24" stroke="currentColor">
        <path stroke-linecap="round" stroke-linejoin="round" stroke-width="1.5" d="M11.049 2.927c.3-.921 1.603-.921 1.902 0l1.519 4.674a1 1 0 00.95.69h4.915c.969 0 1.371 1.24.588 1.81l-3.976 2.888a1 1 0 00-.363 1.118l1.518 4.674c.3.922-.755 1.688-1.538 1.118l-3.976-2.888a1 1 0 00-1.176 0l-3.976 2.888c-.783.57-1.838-.197-1.538-1.118l1.518-4.674a1 1 0 00-.363-1.118l-3.976-2.888c-.784-.57-.38-1.81.588-1.81h4.914a1 1 0 00.951-.69l1.519-4.674z" />
    </symbol>

    <!-- SNOOZED -->
    <symbol id="" class="h-5 w-5" fill="none" viewBox="0 0 24 24" stroke="currentColor">
        <path stroke-linecap="round" stroke-linejoin="round" stroke-width="1.5" d="M12 8v4l3 3m6-3a9 9 0 11-18 0 9 9 0 0118 0z" />
    </symbol>

    <!-- IMPORTANT -->
    <symbol id="" class="h-5 w-5" fill="none" viewBox="0 0 24 24" stroke="currentColor">
        <path stroke-linecap="round" stroke-linejoin="round" stroke-width="1.5" d="M12 9v2m0 4h.01m-6.938 4h13.856c1.54 0 2.502-1.667 1.732-3L13.732 4c-.77-1.333-2.694-1.333-3.464 0L3.34 16c-.77 1.333.192 3 1.732 3z" />
    </symbol>

    <!-- SENT -->
    <symbol id="" class="h-5 w-5" fill="none" viewBox="0 0 24 24" stroke="currentColor">
        <path stroke-linecap="round" stroke-linejoin="round" stroke-width="1.5" d="M12 19l9 2-9-18-9 18 9-2zm0 0v-8" />
    </symbol>

    <!-- DRAFTS -->
    <symbol id="" class="h-5 w-5" fill="none" viewBox="0 0 24 24" stroke="currentColor">
        <path stroke-linecap="round" stroke-linejoin="round" stroke-width="1.5" d="M7 21h10a2 2 0 002-2V9.414a1 1 0 00-.293-.707l-5.414-5.414A1 1 0 0012.586 3H7a2 2 0 00-2 2v14a2 2 0 002 2z" />
    </symbol>

    <!-- ALL MAIL -->
    <symbol id="" class="h-5 w-5" fill="none" viewBox="0 0 24 24" stroke="currentColor">
        <path stroke-linecap="round" stroke-linejoin="round" stroke-width="1.5" d="M3 8l7.89 5.26a2 2 0 002.22 0L21 8M5 19h14a2 2 0 002-2V7a2 2 0 00-2-2H5a2 2 0 00-2 2v10a2 2 0 002 2z" />
    </symbol>

    <!-- MORE -->
    <symbol id="" class="h-5 w-5" fill="none" viewBox="0 0 24 24" stroke="currentColor">
        <path stroke-linecap="round" stroke-linejoin="round" stroke-width="1.5" d="M19 9l-7 7-7-7" />
    </symbol>

    <!-- CHAT -->
    <symbol id="" class="h-12 w-12" fill="none" viewBox="0 0 24 24" stroke="currentColor">
        <path stroke-linecap="round" stroke-linejoin="round" stroke-width="1.5" d="M8 10h.01M12 10h.01M16 10h.01M9 16H5a2 2 0 01-2-2V6a2 2 0 012-2h14a2 2 0 012 2v8a2 2 0 01-2 2h-5l-5 5v-5z" />
    </symbol>

    <!-- NEW MEETING -->
    <symbol id="" class="h-6 w-6" fill="none" viewBox="0 0 24 24" stroke="currentColor">
        <path stroke-linecap="round" stroke-linejoin="round" stroke-width="1.5" d="M15 10l4.553-2.276A1 1 0 0121 8.618v6.764a1 1 0 01-1.447.894L15 14M5 18h8a2 2 0 002-2V8a2 2 0 00-2-2H5a2 2 0 00-2 2v8a2 2 0 002 2z" />
    </symbol>

    <!-- JOIN MEETING -->
    <symbol id="" class="h-6 w-6" fill="none" viewBox="0 0 24 24" stroke="currentColor">
        <path stroke-linecap="round" stroke-linejoin="round" stroke-width="1.5" d="M9.75 17L9 20l-1 1h8l-1-1-.75-3M3 13h18M5 17h14a2 2 0 002-2V5a2 2 0 00-2-2H5a2 2 0 00-2 2v10a2 2 0 002 2z" />
    </symbol>






    <!-- MAIN SECTION -->
    <!-- RELOAD -->
    <symbol id="reload" fill="none" viewBox="0 0 24 24" stroke="currentColor">
        <path stroke-linecap="round" stroke-linejoin="round" stroke-width="1.5" d="M4 4v5h.582m15.356 2A8.001 8.001 0 004.582 9m0 0H9m11 11v-5h-.581m0 0a8.003 8.003 0 01-15.357-2m15.357 2H15" />
    </symbol>

    <!-- UREAD CHEVRON -->
    <symbol id="" class="h-5 w-5 text-[#B0B0B0] hover:text-white" fill="none" viewBox="0 0 24 24" stroke="currentColor">
        <path stroke-linecap="round" stroke-linejoin="round" stroke-width="1.5" d="M5 15l7-7 7 7" />
    </symbol>

    <!-- 6 DOTS -->
    <symbol id="" class="icon icon-tabler icon-tabler-grid-dots h-5 w-4 invisible group-hover:visible relative z-10" viewBox="0 0 24 24" stroke-width="2.5" stroke="currentColor" fill="none" stroke-linecap="round" stroke-linejoin="round">
        <path stroke="none" d="M0 0h24v24H0z" fill="none" />
        <circle cx="5" cy="5" r="0.5" />
        <circle cx="12" cy="5" r="0.5" />
        <circle cx="5" cy="12" r="0.5" />
        <circle cx="12" cy="12" r="0.5" />
        <circle cx="5" cy="19" r="0.5" />
        <circle cx="12" cy="19" r="0.5" />
    </symbol>

    <!-- ARCHIVE -->
    <symbol id="" class="h-5 w-5" fill="none"                                        viewBox="0 0 24 24" stroke="currentColor">
        <path stroke-linecap="round" stroke-linejoin="round" stroke-width="1.5" d="M5 8h14M5 8a2 2 0 110-4h14a2 2 0 110 4M5 8v10a2 2 0 002 2h10a2 2 0 002-2V8m-9 4h4" />
    </symbol>

    <!-- DELETE -->
    <symbol id="" class="h-5 w-5" fill="none" viewBox="0 0 24 24" stroke="currentColor">
        <path stroke-linecap="round" stroke-linejoin="round" stroke-width="1.5" d="M19 7l-.867 12.142A2 2 0 0116.138 21H7.862a2 2 0 01-1.995-1.858L5 7m5 4v6m4-6v6m1-10V4a1 1 0 00-1-1h-4a1 1 0 00-1 1v3M4 7h16" />
    </symbol>

    <!-- MARK AS READ -->
    <symbol id="" class="h-5 w-5" fill="none" viewBox="0 0 24 24" stroke="currentColor">
        <path stroke-linecap="round" stroke-linejoin="round" stroke-width="1.5" d="M3 19v-8.93a2 2 0 01.89-1.664l7-4.666a2 2 0 012.22 0l7 4.666A2 2 0 0121 10.07V19M3 19a2 2 0 002 2h14a2 2 0 002-2M3 19l6.75-4.5M21 19l-6.75-4.5M3 10l6.75 4.5M21 10l-6.75 4.5m0 0l-1.14.76a2 2 0 01-2.22 0l-1.14-.76" />
    </symbol>


</svg>
